<svg width="52" height="52" viewBox="0 0 52 52" fill="none" xmlns="http://www.w3.org/2000/svg">
<path d="M28 51.375C27.6957 51.3768 27.394 51.3184 27.1122 51.2033C26.8305 51.0883 26.5742 50.9187 26.3581 50.7044L1.61438 25.9375C0.745829 25.0741 0.255163 23.9015 0.25 22.6769V5.125C0.25 3.89837 0.737275 2.72199 1.60463 1.85463C2.47199 0.987276 3.64837 0.5 4.875 0.5H22.4269C23.6515 0.505163 24.8241 0.995829 25.6875 1.86438L50.4544 26.6081C50.6711 26.8231 50.8432 27.0789 50.9606 27.3607C51.078 27.6425 51.1384 27.9447 51.1384 28.25C51.1384 28.5553 51.078 28.8575 50.9606 29.1393C50.8432 29.4211 50.6711 29.6769 50.4544 29.8919L29.6419 50.7044C29.4258 50.9187 29.1695 51.0883 28.8878 51.2033C28.606 51.3184 28.3043 51.3768 28 51.375ZM4.875 5.125V22.6769L28 45.8019L45.5519 28.25L22.4269 5.125H4.875Z" fill="#16284E"/>
</svg>
